<?xml version="1.0" encoding="UTF-8"?>
<svg version="1.1" xmlns="http://www.w3.org/2000/svg" width="500" height="500">
<path d="M0 0 C165 0 330 0 500 0 C500 165 500 330 500 500 C335 500 170 500 0 500 C0 335 0 170 0 0 Z " fill="#1C1F2E" transform="translate(0,0)"/>
<path d="M0 0 C4.62 0 9.24 0 14 0 C17.44655039 7.21621489 20.44518155 14.53695066 23.3125 22 C23.67408203 22.93223389 24.03566406 23.86446777 24.40820312 24.82495117 C24.74400391 25.70771729 25.07980469 26.5904834 25.42578125 27.5 C25.88078003 28.69109375 25.88078003 28.69109375 26.3449707 29.90625 C27 32 27 32 27 35 C27.66 35 28.32 35 29 35 C29.11408203 34.31518555 29.22816406 33.63037109 29.34570312 32.92480469 C30.10296473 29.53973229 31.23660681 26.4461188 32.46875 23.203125 C32.70911987 22.56888611 32.94948975 21.93464722 33.19714355 21.28118896 C33.70294848 19.9492743 34.21067259 18.61808703 34.72021484 17.28759766 C35.5021415 15.2444042 36.27688357 13.19858998 37.05078125 11.15234375 C40.86128557 1.13871443 40.86128557 1.13871443 42 0 C44.35313555 -0.07271741 46.70833668 -0.08370868 49.0625 -0.0625 C50.35285156 -0.05347656 51.64320313 -0.04445312 52.97265625 -0.03515625 C53.97167969 -0.02355469 54.97070312 -0.01195312 56 0 C54.11867217 6.71785833 51.85526277 13.11233321 49.09375 19.515625 C48.7277771 20.37508728 48.3618042 21.23454956 47.98474121 22.12005615 C47.21742076 23.91931992 46.44757698 25.71750955 45.67529297 27.51464844 C44.49794302 30.25478737 43.32840225 32.99815644 42.16015625 35.7421875 C41.40930454 37.50019242 40.65801754 39.25801151 39.90625 41.015625 C39.55929077 41.82823792 39.21233154 42.64085083 38.8548584 43.47808838 C37.02853572 47.72329229 35.11728617 51.88890859 33 56 C29.7 56 26.4 56 23 56 C20.26098539 50.64148323 17.76337939 45.25691303 15.46875 39.6953125 C14.99205872 38.54928055 14.99205872 38.54928055 14.5057373 37.38009644 C13.50114313 34.9628341 12.50058381 32.54392466 11.5 30.125 C10.82967527 28.51161561 10.15910422 26.89833354 9.48828125 25.28515625 C7.92046577 21.51137752 6.35950809 17.73483924 4.8046875 13.95568848 C4.08494529 12.2064485 3.36293649 10.45814155 2.640625 8.70996094 C2.27453125 7.8130957 1.9084375 6.91623047 1.53125 5.9921875 C1.22767578 5.25081543 0.92410156 4.50944336 0.61132812 3.74560547 C0 2 0 2 0 0 Z " fill="#FAFAFA" transform="translate(115,213)"/>
<path d="M0 0 C0.78375 0.495 1.5675 0.99 2.375 1.5 C2.375 0.84 2.375 0.18 2.375 -0.5 C6.665 -0.5 10.955 -0.5 15.375 -0.5 C15.375 11.05 15.375 22.6 15.375 34.5 C11.085 34.5 6.795 34.5 2.375 34.5 C2.045 33.84 1.715 33.18 1.375 32.5 C0.75625 32.995 0.1375 33.49 -0.5 34 C-5.39367397 36.3489635 -10.50476316 36.54598849 -15.6875 34.80859375 C-20.98446358 32.08020087 -23.77771064 28.04186807 -25.625 22.5 C-26.28975679 15.04600582 -26.26933645 9.52508513 -21.625 3.5 C-15.36800131 -2.29916951 -7.8544244 -3.25010665 0 0 Z " fill="#F8F8F8" transform="translate(364.625,234.5)"/>
<path d="M0 0 C3.625 1.5 3.625 1.5 6 3 C6.33 2.34 6.66 1.68 7 1 C10.96 1 14.92 1 19 1 C19 12.55 19 24.1 19 36 C15.04 36 11.08 36 7 36 C6.67 35.01 6.34 34.02 6 33 C5.21625 33.66 4.4325 34.32 3.625 35 C-0.68411464 37.85236903 -5.00920803 37.76050163 -10 37 C-15.12671478 35.41645875 -18.49897289 32.10135745 -21.1171875 27.48046875 C-23.33807571 21.24036251 -23.14724145 14.47098158 -20.375 8.5 C-13.92110204 1.7064232 -9.47569328 -0.86932966 0 0 Z " fill="#FAFAFA" transform="translate(196,233)"/>
<path d="M0 0 C3.66485378 1.54021264 6.90776298 3.29322639 9.08740234 6.69921875 C10.26856302 9.67708344 10.2255079 12.09616289 10.1953125 15.296875 C10.18886719 16.50214844 10.18242187 17.70742187 10.17578125 18.94921875 C10.15902344 20.20347656 10.14226562 21.45773438 10.125 22.75 C10.11597656 24.01972656 10.10695313 25.28945313 10.09765625 26.59765625 C10.07409087 29.73185129 10.03822013 32.86594941 10 36 C6.04 36 2.08 36 -2 36 C-2.04898438 34.36289062 -2.09796875 32.72578125 -2.1484375 31.0390625 C-2.22345639 28.901024 -2.2990046 26.76300402 -2.375 24.625 C-2.4059375 23.54476563 -2.436875 22.46453125 -2.46875 21.3515625 C-2.50742188 20.3203125 -2.54609375 19.2890625 -2.5859375 18.2265625 C-2.63306885 16.79691162 -2.63306885 16.79691162 -2.68115234 15.33837891 C-2.78555796 12.81104824 -2.78555796 12.81104824 -5 11 C-8.5 10.66666667 -8.5 10.66666667 -12 11 C-14.56136221 13.56136221 -14.29666857 14.66561331 -14.4140625 18.2265625 C-14.47207031 19.7734375 -14.47207031 19.7734375 -14.53125 21.3515625 C-14.5621875 22.43179688 -14.593125 23.51203125 -14.625 24.625 C-14.68300781 26.25695312 -14.68300781 26.25695312 -14.7421875 27.921875 C-14.83665846 30.61429745 -14.91942581 33.30712584 -15 36 C-19.29 36 -23.58 36 -28 36 C-28 24.45 -28 12.9 -28 1 C-24.04 1 -20.08 1 -16 1 C-16 1.99 -16 2.98 -16 4 C-15.21625 3.34 -14.4325 2.68 -13.625 2 C-9.31290662 -0.83743881 -4.98823186 -0.89788174 0 0 Z " fill="#F7F8F8" transform="translate(253,233)"/>
<path d="M0 0 C4.29 0 8.58 0 13 0 C13 19.47 13 38.94 13 59 C8.71 59 4.42 59 0 59 C0 39.53 0 20.06 0 0 Z " fill="#EFF0F1" transform="translate(318,210)"/>
<path d="M0 0 C3.96 0 7.92 0 12 0 C12 19.47 12 38.94 12 59 C8.04 59 4.08 59 0 59 C0 39.53 0 20.06 0 0 Z " fill="#FCFCFD" transform="translate(296,210)"/>
<path d="M0 0 C3.96 0 7.92 0 12 0 C12 11.55 12 23.1 12 35 C8.04 35 4.08 35 0 35 C0 23.45 0 11.9 0 0 Z " fill="#FDFDFD" transform="translate(273,234)"/>
<path d="M0 0 C2.5 2.125 2.5 2.125 4 5 C4.07481382 9.26438773 3.64839572 11.23718151 0.875 14.5 C-2.91613014 16.47798094 -4.92797973 16.13111674 -9 15 C-11.11130276 13.38951789 -11.89153752 12.4907927 -12.46875 9.87890625 C-12.52426701 5.76370783 -12.54853806 3.69813934 -9.9375 0.375 C-6.05118362 -1.44412682 -4.0801632 -1.26114135 0 0 Z " fill="#272938" transform="translate(364,244)"/>
<path d="M0 0 C3.71317907 1.14770989 5.2692056 1.85342428 7.4375 5.0625 C8.07674557 8.8180677 7.72758409 10.54034863 5.875 13.875 C2.65216844 16.76728473 0.74942698 17.21379568 -3.5625 17.0625 C-6.5 15.0625 -6.5 15.0625 -8.5625 12.0625 C-9.36035988 7.59448469 -9.07984028 5.81499495 -6.5 2.0625 C-3.5625 0.0625 -3.5625 0.0625 0 0 Z " fill="#252837" transform="translate(195.5625,242.9375)"/>
<path d="M0 0 C4.36689189 1.42398649 4.36689189 1.42398649 5.875 3.9375 C6.375 7.375 6.375 7.375 5.875 10.9375 C3.75 13.4375 3.75 13.4375 0.875 14.9375 C-2.64897438 14.9375 -4.36775308 14.61902223 -7 12.25 C-8.49794243 9.17089611 -8.68883235 7.32049409 -8.125 3.9375 C-5.43583153 0.85286557 -4.12776368 -0.08255527 0 0 Z " fill="#F5F5F6" transform="translate(280.125,212.0625)"/>
</svg>
